<svg preserveAspectRatio="none" overflow="visible" style="display: block;" width="80.8333" height="20" viewBox="0 0 80.8333 20" fill="none" xmlns="http://www.w3.org/2000/svg">
<g id="Frame 1">
<g id="Product name">
<path d="M4.36012 17.5298C4.22843 18.1117 3.77483 18.468 2.99933 18.599C2.28235 18.7299 1.60196 18.6499 0.958141 18.3589C0.241165 18.0535 -0.0734268 17.6244 0.0143661 17.0716C-0.0734268 16.2279 0.372854 14.3951 1.35321 11.5731C2.81643 7.34008 4.27964 4.31445 5.74286 2.49615C6.12329 2.03067 6.4452 1.73247 6.70858 1.60155C6.98659 1.45609 7.30118 1.32517 7.65235 1.2088C8.00353 1.09243 8.36933 0.983333 8.74977 0.881508C9.51064 0.677859 10.2276 0.539669 10.9007 0.466937C11.5884 0.379659 12.203 0.459665 12.7443 0.706953C13.2857 0.939694 13.7028 1.28881 13.9954 1.75429C14.3027 2.21977 14.4929 2.77253 14.5661 3.41257C14.6392 4.03807 14.6173 4.69992 14.5002 5.39815C14.3831 6.08183 14.171 6.78005 13.8637 7.49282C13.5564 8.19105 13.1687 8.84563 12.7005 9.45658C11.6762 10.7948 10.4764 11.6604 9.10094 12.0531L9.32042 12.424C9.51064 12.715 9.73744 13.035 10.0008 13.3841C10.2788 13.7332 10.5495 14.0896 10.8129 14.4532C11.0909 14.8169 11.3397 15.1806 11.5591 15.5442C11.7786 15.9079 11.9396 16.2497 12.042 16.5697C12.2761 17.2825 12.0932 17.7989 11.4933 18.1189C11.0104 18.4099 10.63 18.4826 10.352 18.3371C10.2349 18.2644 10.1179 18.1698 10.0008 18.0535C9.88376 17.9516 9.72281 17.8644 9.51796 17.7916C8.65466 18.0389 7.99621 17.8207 7.54261 17.137C7.2646 16.7007 7.05244 16.3006 6.90611 15.937C6.75979 15.5733 6.63542 15.2678 6.53299 15.0206C6.26962 14.4823 5.96966 14.0169 5.63312 13.6241C5.47216 14.0169 5.28926 14.5187 5.08441 15.1297C4.83566 15.9006 4.55765 16.7007 4.25038 17.5298H4.36012ZM8.79366 4.83084C8.51565 5.45633 8.32543 5.89272 8.22301 6.14001C8.01816 6.63459 7.79136 7.18008 7.54261 7.77648C7.49872 8.0965 7.46214 8.32196 7.43287 8.45288L7.74015 8.14741L8.11327 7.97285C8.37665 7.82739 8.61808 7.69647 8.83756 7.5801C9.05704 7.46373 9.25458 7.31827 9.43016 7.14371C9.7667 6.80914 10.0593 6.26366 10.3081 5.50725C10.3081 5.36178 10.33 5.21632 10.3739 5.07086C10.4325 4.92539 10.469 4.77993 10.4837 4.63447C10.5422 4.31445 10.4105 4.08898 10.0886 3.95806C9.79597 3.92897 9.43016 4.16898 8.9912 4.6781C8.9034 4.77993 8.83756 4.83084 8.79366 4.83084Z" fill="white"/>
<path d="M20.2952 14.2351C20.0172 14.366 19.7465 14.4678 19.4831 14.5405C19.2198 14.6133 18.9125 14.686 18.5613 14.7587C17.6395 14.9478 16.9737 15.0569 16.564 15.086C16.6079 15.2315 16.8274 15.406 17.2225 15.6097C17.4859 15.6533 17.7712 15.617 18.0785 15.5006C18.4004 15.3697 18.7296 15.2533 19.0661 15.1515C19.4173 15.0351 19.7538 14.9696 20.0757 14.9551C20.4123 14.9406 20.7269 15.0642 21.0195 15.326C21.1366 15.5879 21.2317 15.7406 21.3048 15.7842C21.378 15.8279 21.4439 15.8497 21.5024 15.8497C21.5609 15.8497 21.6268 15.8715 21.6999 15.9152C21.7731 15.9588 21.8755 16.1261 22.0072 16.417C22.1535 16.7079 22.1169 16.9843 21.8974 17.2461C21.6926 17.508 21.3707 17.7335 20.9317 17.9226C20.4928 18.1117 19.9806 18.2644 19.3953 18.3808C18.8101 18.4971 18.2248 18.5771 17.6395 18.6208C16.3226 18.7226 15.3203 18.6208 14.6326 18.3153C13.6376 17.9807 12.9938 17.3189 12.7011 16.3297C12.3207 15.0206 12.5329 13.4932 13.3376 11.7476C13.7034 10.933 14.2814 10.0603 15.0715 9.12929C15.7593 8.31469 16.5274 7.72556 17.3761 7.3619C18.3565 6.94006 19.3807 6.74369 20.4489 6.77278C21.5902 6.80187 22.3803 7.29645 22.8193 8.25651C23.0388 8.76563 23.0827 9.4784 22.951 10.3948C22.7168 11.5876 22.4096 12.4313 22.0291 12.9259C21.6487 13.4059 21.0707 13.8423 20.2952 14.2351ZM19.0222 10.7876C18.2467 10.6276 17.6395 11.064 17.2005 12.0967C17.0688 12.3731 16.9664 12.664 16.8933 12.9695C17.3907 13.0277 17.9175 12.7513 18.4735 12.1404C18.6784 11.8931 18.832 11.6458 18.9344 11.3985C19.0369 11.1367 19.0661 10.933 19.0222 10.7876Z" fill="white"/>
<path d="M30.5104 17.988C29.9398 18.4535 29.2594 18.8026 28.4692 19.0353C27.6937 19.2826 26.9109 19.4136 26.1208 19.4281C25.3306 19.4426 24.5917 19.3481 23.904 19.1444C23.2163 18.9408 22.6749 18.6208 22.2798 18.1844C21.8116 17.6898 21.6506 17.1952 21.797 16.7007C21.8701 16.497 22.0018 16.337 22.192 16.2206C22.3676 16.1043 22.5871 16.0752 22.8505 16.1334C23.0261 16.1479 23.1504 16.1043 23.2236 16.0024C23.3114 15.8861 23.3846 15.7624 23.4431 15.6315C23.5016 15.486 23.5675 15.3551 23.6406 15.2388C23.7138 15.1078 23.8308 15.0424 23.9918 15.0424C26.5671 15.1151 27.9059 14.8896 28.0083 14.366C27.8327 14.206 27.6133 14.0678 27.3499 13.9514C27.1011 13.835 26.8451 13.7187 26.5817 13.6023C25.9379 13.3114 25.5062 12.9913 25.2867 12.6422C25.0087 12.4968 24.7966 12.1477 24.6502 11.5949C24.5771 11.3476 24.5405 11.093 24.5405 10.8312C24.5405 10.5694 24.5844 10.3294 24.6722 10.1112C24.6283 9.54386 24.9795 8.91836 25.7257 8.23469C25.9306 8.04558 26.1866 7.84193 26.4939 7.62374C26.8012 7.40554 27.2621 7.19462 27.8766 6.99097C28.4912 6.78732 29.0984 6.64186 29.6983 6.55458C30.3129 6.45276 30.8616 6.41639 31.3445 6.44549C31.8419 6.47458 32.1931 6.59095 32.398 6.7946C32.6175 6.99825 32.7857 7.25281 32.9028 7.55828C33.0345 7.86375 33.0784 8.16195 33.0345 8.45288C32.9174 9.10747 32.376 9.5584 31.4103 9.80569C30.1958 9.98025 29.6105 10.1403 29.6544 10.2857C29.6544 10.3148 29.6032 10.3512 29.5008 10.3948C30.6275 11.1658 31.4103 11.9222 31.8493 12.664C32.4492 13.6823 32.537 14.8169 32.1126 16.0679C32.1858 16.4752 31.82 16.9843 31.0152 17.5953C30.825 17.7407 30.6567 17.8716 30.5104 17.988Z" fill="white"/>
<path d="M35.8627 7.88557C36.2724 7.49282 36.726 7.26735 37.2235 7.20917C37.7356 7.13644 38.1819 7.18735 38.5623 7.3619C38.9574 7.53646 39.2427 7.82011 39.4183 8.21287C39.6085 8.59107 39.5866 9.02746 39.3525 9.52204C38.855 10.2494 38.4599 11.0349 38.1673 11.8785C37.8746 12.7222 37.6039 13.5732 37.3552 14.4314C38.7013 13.5877 39.828 12.3295 40.7352 10.6567C40.9986 10.1621 41.2839 9.66023 41.5912 9.15111L41.9204 8.54016L42.5789 7.49282C42.6667 7.21644 42.8203 7.04189 43.0398 6.96915C43.2593 6.88188 43.4934 6.83824 43.7421 6.83824C44.0055 6.83824 44.2689 6.84551 44.5323 6.86006C44.7956 6.86006 45.0371 6.78732 45.2566 6.64186C45.476 6.4964 45.7321 6.44549 46.0247 6.48912C46.332 6.51822 46.6027 6.61277 46.8368 6.77278C47.0856 6.93279 47.2685 7.12916 47.3855 7.3619C47.5172 7.5801 47.5319 7.7983 47.4294 8.01649C46.8149 9.32566 45.9735 11.7622 44.9054 15.326C44.6566 16.1261 44.4225 16.7952 44.203 17.3334C43.8372 17.7844 43.3763 18.0898 42.8203 18.2498C42.2643 18.4099 41.7375 18.4535 41.24 18.3808C40.7572 18.3226 40.3694 18.1553 40.0768 17.8789C39.7841 17.6171 39.7183 17.2825 39.8792 16.8752C39.4695 17.2098 39.0452 17.5153 38.6062 17.7916C38.1673 18.068 37.6332 18.2498 37.004 18.3371C36.3895 18.4244 35.7969 18.3953 35.2262 18.2498C34.6556 18.1189 34.1654 17.8571 33.7557 17.4643C33.3606 17.0716 33.1484 16.5479 33.1192 15.8933C33.0314 13.595 33.9459 10.9258 35.8627 7.88557Z" fill="white"/>
<path d="M54.2871 1.53609C54.4334 1.92885 54.5139 2.19068 54.5285 2.3216C54.5577 2.59798 54.4553 2.83072 54.2212 3.01982C54.2212 3.03437 54.2066 3.05619 54.1773 3.08528C54.309 3.76896 54.3383 4.409 54.2651 5.0054C54.1919 5.6018 54.0968 6.17638 53.9798 6.72914C54.7699 5.39088 55.3991 4.409 55.8673 3.7835C56.833 2.48888 57.7329 1.56519 58.567 1.01243C58.845 0.852416 59.1815 0.736045 59.5766 0.663313C59.9863 0.576035 60.374 0.561489 60.7398 0.619675C61.1056 0.67786 61.4056 0.823323 61.6397 1.05606C61.8885 1.28881 61.9982 1.63792 61.9689 2.1034C61.5592 4.93994 61.1203 7.58737 60.652 10.0457C60.1838 12.4895 59.5766 14.8242 58.8303 17.0498V17.0934H58.8084C58.6328 17.6171 58.1938 17.988 57.4915 18.2062C56.8038 18.4099 56.1892 18.4244 55.6478 18.2498C54.9894 18.0607 54.6894 17.7116 54.748 17.2025L54.7699 16.7007V16.657C54.8284 16.3079 54.8577 16.0752 54.8577 15.9588C54.8723 15.8279 54.887 15.7333 54.9016 15.6751C54.9309 15.2969 54.9894 14.9478 55.0772 14.6278C55.1796 14.2932 55.2528 14.0241 55.2967 13.8205C55.3406 13.6168 55.3845 13.4277 55.4284 13.2532C55.4723 13.0641 55.5015 12.9186 55.5162 12.8168C54.9601 13.5732 54.5651 14.0314 54.331 14.1914C53.7457 14.5987 53.0653 14.7878 52.2898 14.7587C51.8069 14.7296 51.5289 14.6205 51.4557 14.4314C51.3094 14.0241 51.207 13.7841 51.1485 13.7114C51.0607 13.595 50.9875 13.3986 50.929 13.1223C50.5485 14.7951 50.1754 15.9806 49.8096 16.6788C49.6633 16.9552 49.517 17.2025 49.3706 17.4207C49.1658 17.9007 48.6976 18.2353 47.966 18.4244C47.2782 18.6135 46.6198 18.599 45.9906 18.3808C45.3468 18.1771 45.0395 17.8135 45.0688 17.2898C45.0981 16.7661 45.2078 16.1115 45.398 15.326C45.5736 14.526 45.7858 13.6823 46.0345 12.795C46.7808 9.98752 47.3075 8.16195 47.6148 7.31827C47.9367 6.47458 48.2074 5.81272 48.4269 5.33269C48.9536 4.21262 49.4219 3.39803 49.8316 2.8889C50.2852 1.97248 51.0387 1.41972 52.0922 1.23062C52.9263 1.07061 53.6579 1.17244 54.2871 1.53609Z" fill="white"/>
<path d="M67.838 14.2351C67.56 14.366 67.2893 14.4678 67.026 14.5405C66.7626 14.6133 66.4553 14.686 66.1041 14.7587C65.1823 14.9478 64.5165 15.0569 64.1068 15.086C64.1507 15.2315 64.3702 15.406 64.7653 15.6097C65.0287 15.6533 65.314 15.617 65.6213 15.5006C65.9432 15.3697 66.2724 15.2533 66.6089 15.1515C66.9601 15.0351 67.2966 14.9696 67.6186 14.9551C67.9551 14.9406 68.2697 15.0642 68.5623 15.326C68.6794 15.5879 68.7745 15.7406 68.8477 15.7842C68.9208 15.8279 68.9867 15.8497 69.0452 15.8497C69.1037 15.8497 69.1696 15.8715 69.2427 15.9152C69.3159 15.9588 69.4183 16.1261 69.55 16.417C69.6963 16.7079 69.6597 16.9843 69.4403 17.2461C69.2354 17.508 68.9135 17.7335 68.4745 17.9226C68.0356 18.1117 67.5234 18.2644 66.9382 18.3808C66.3529 18.4971 65.7676 18.5771 65.1823 18.6208C63.8654 18.7226 62.8631 18.6208 62.1754 18.3153C61.1804 17.9807 60.5366 17.3189 60.2439 16.3297C59.8635 15.0206 60.0757 13.4932 60.8804 11.7476C61.2462 10.933 61.8242 10.0603 62.6144 9.12929C63.3021 8.31469 64.0703 7.72556 64.9189 7.3619C65.8993 6.94006 66.9235 6.74369 67.9917 6.77278C69.133 6.80187 69.9231 7.29645 70.3621 8.25651C70.5816 8.76563 70.6255 9.4784 70.4938 10.3948C70.2597 11.5876 69.9524 12.4313 69.5719 12.9259C69.1915 13.4059 68.6135 13.8423 67.838 14.2351ZM66.565 10.7876C65.7895 10.6276 65.1823 11.064 64.7433 12.0967C64.6116 12.3731 64.5092 12.664 64.4361 12.9695C64.9336 13.0277 65.4603 12.7513 66.0163 12.1404C66.2212 11.8931 66.3748 11.6458 66.4772 11.3985C66.5797 11.1367 66.6089 10.933 66.565 10.7876Z" fill="white"/>
<path d="M80.4456 1.73247C80.5041 1.90703 80.57 2.03067 80.6431 2.1034C80.7163 2.16159 80.7675 2.20523 80.7968 2.23432C80.8699 2.30705 80.8333 2.43797 80.687 2.62707C80.5553 2.8889 80.3724 3.19438 80.1383 3.54349C79.714 4.16898 79.4433 4.62719 79.3262 4.91812C78.7263 6.11092 78.2581 7.20917 77.9215 8.21287C77.585 9.20202 77.2997 10.0966 77.0656 10.8967C76.8314 11.6967 76.6046 12.4022 76.3852 13.0132C76.1218 13.7259 75.8145 14.2569 75.4633 14.606C75.2877 14.8969 74.9732 15.0933 74.5196 15.1951C74.066 15.2969 73.6051 15.3188 73.1368 15.2606C72.6686 15.1878 72.2662 15.0351 71.9297 14.8024C71.6078 14.5696 71.4907 14.2641 71.5785 13.8859C71.7394 12.5186 71.9809 11.3694 72.3028 10.4385C72.6393 9.50749 72.9247 8.73654 73.1588 8.12559C73.4075 7.51464 73.6197 6.96915 73.7953 6.48912C73.9709 5.99455 74.1318 5.57271 74.2781 5.22359C74.4391 4.85993 74.622 4.48173 74.8268 4.08898C75.0317 3.68168 75.2512 3.27438 75.4853 2.86708C75.734 2.44524 75.9828 2.05976 76.2315 1.71065C76.8022 0.910601 77.285 0.437845 77.6801 0.292381C78.0752 0.132371 78.4702 0.0378204 78.8653 0.00872806C79.275 -0.0203651 79.6262 0.0232738 79.9188 0.139645C80.2261 0.256016 80.4383 0.445118 80.5553 0.706953C80.6724 0.968786 80.6358 1.31063 80.4456 1.73247ZM75.2 18.1844C75.039 18.7808 74.7025 19.2245 74.1903 19.5154C73.6928 19.8209 73.1588 19.9809 72.5881 19.9954C72.0175 20.0245 71.4834 19.9154 70.9859 19.6681C70.503 19.4354 70.2031 19.0644 70.086 18.5553C69.9543 18.0607 70.0275 17.6389 70.3055 17.2898C70.5981 16.9261 70.942 16.6934 71.3371 16.5916C71.7321 16.4752 72.193 16.3952 72.7198 16.3515C73.2612 16.3079 73.7514 16.337 74.1903 16.4388C74.6293 16.5406 74.9658 16.7298 75.2 17.0061C75.4341 17.2825 75.4341 17.6753 75.2 18.1844Z" fill="white"/>
</g>
</g>
</svg>
